<?xml version="1.0" encoding="utf-8"?>
<!-- Generator: Adobe Illustrator 15.0.0, SVG Export Plug-In . SVG Version: 6.00 Build 0)  -->
<!DOCTYPE svg PUBLIC "-//W3C//DTD SVG 1.1//EN" "http://www.w3.org/Graphics/SVG/1.1/DTD/svg11.dtd">
<svg version="1.1" id="レイヤー_1" xmlns="http://www.w3.org/2000/svg" xmlns:xlink="http://www.w3.org/1999/xlink" x="0px"
	 y="0px" width="512px" height="512px" viewBox="0 0 512 512" enable-background="new 0 0 512 512" xml:space="preserve">
<rect x="640" y="123" fill="#BF7B00" width="260" height="210"/>
<path fill="#FFFFFF" d="M255.998,10.312C120.309,10.312,10.312,120.311,10.312,256s109.996,245.686,245.686,245.686
	c135.691,0,245.688-109.996,245.688-245.686S391.689,10.312,255.998,10.312z M255.105,435.525c-12.928,0-23.41-10.48-23.41-23.41
	c0-12.932,10.482-23.408,23.41-23.408c12.924,0,23.408,10.477,23.408,23.408C278.514,425.045,268.029,435.525,255.105,435.525z
	 M309.578,257.979c-18.057,9.51-29.104,16.963-33.125,22.363c-4.029,5.404-6.039,13.824-6.039,25.264l0.238,55.357h-34.816
	c0.158-25.145,0.52-69.578,1.09-75.783c0.562-6.201,2.295-12.41,5.195-18.619c2.9-6.201,6.164-11.037,9.791-14.504
	c3.625-3.467,12.209-8.984,25.75-16.562c14.668-8.219,24.779-14.627,30.34-19.221c5.562-4.594,10.4-10.959,14.506-19.102
	c4.113-8.137,6.166-17.043,6.166-26.713c0-18.375-6.65-32.799-19.947-43.277c-13.295-10.475-28.975-15.715-47.018-15.715
	c-40.945,0-65.926,23.777-74.951,71.322l-36.025-7.736c12.088-64.953,49.723-97.432,112.91-97.432
	c32.23,0,58.262,8.824,78.09,26.475c19.828,17.646,29.734,40.254,29.734,67.814C371.467,207.855,350.838,236.545,309.578,257.979z"
	/>
</svg>
